<svg width="64" height="64" viewBox="0 0 64 64" fill="none" xmlns="http://www.w3.org/2000/svg">
  <!-- Background circle -->
  <circle cx="32" cy="32" r="30" fill="#7C3AED" stroke="#5B21B6" stroke-width="2"/>
  
  <!-- Shield shape for pest control -->
  <path d="M32 8L48 16V32C48 44 32 56 32 56S16 44 16 32V16L32 8Z" fill="white"/>
  
  <!-- Bug icon -->
  <circle cx="32" cy="28" r="4" fill="#7C3AED"/>
  <path d="M28 24C28 20 30 18 32 18C34 18 36 20 36 24" stroke="#7C3AED" stroke-width="2" fill="none"/>
  <path d="M24 28C20 28 18 30 18 32C18 34 20 36 24 36" stroke="#7C3AED" stroke-width="2" fill="none"/>
  <path d="M40 28C44 28 46 30 46 32C46 34 44 36 40 36" stroke="#7C3AED" stroke-width="2" fill="none"/>
  
  <!-- Text -->
  <text x="32" y="48" text-anchor="middle" fill="white" font-family="Arial, sans-serif" font-size="8" font-weight="bold">MARIN</text>
</svg>
